<?xml version="1.0" encoding="UTF-8"?>
<!-- Generator: visioncortex VTracer 0.6.2 -->
<svg version="1.1" xmlns="http://www.w3.org/2000/svg" width="1280" height="1280">
<path d="M0 0 C2.50090687 6.82637474 3.36603609 13.1818469 3.7578125 20.421875 C4.13596743 26.00880909 5.07798489 31.4813694 6 37 C7.80632428 48.25802109 9.30358226 59.54440224 10.53515625 70.87890625 C10.62345703 71.69077393 10.71175781 72.5026416 10.80273438 73.33911133 C10.97230056 74.91285761 11.13909399 76.48690581 11.30273438 78.0612793 C11.66637023 81.46119819 12.17161691 84.690108 13 88 C13.34003941 90.72888768 13.65181284 93.45298275 13.9375 96.1875 C14.11159358 97.79691676 14.28608316 99.40629072 14.4609375 101.015625 C14.54956055 101.83740234 14.63818359 102.65917969 14.72949219 103.50585938 C15.16101289 107.48457374 15.606705 111.46149868 16.0625 115.4375 C16.14169678 116.15252686 16.22089355 116.86755371 16.30249023 117.60424805 C16.64279938 120.55418914 17.05747583 123.17242749 18 126 C18.19919416 127.42029587 18.36231385 128.84586572 18.5 130.2734375 C18.62375 131.5109375 18.62375 131.5109375 18.75 132.7734375 C18.87375 134.06121094 18.87375 134.06121094 19 135.375 C19.55522352 141.52995013 19.55522352 141.52995013 20.53125 147.625 C21.43793685 152.21888002 21.46199926 156.93420089 21.71875 161.6015625 C21.86374331 164.9860735 21.86374331 164.9860735 23 168 C23.32285764 170.97909552 23.61063367 173.95321087 23.875 176.9375 C24.61886347 184.87636844 25.65046411 192.72597588 26.88964844 200.60131836 C27.90585935 207.13881258 28.68975927 213.68386277 29.35351562 220.26611328 C29.74745487 224.19840088 29.74745487 224.19840088 30.52734375 228.06640625 C31.24432891 230.99952737 31.28265612 233.92594458 31.4375 236.9375 C31.78506655 242.98530517 32.5295314 248.86817338 33.52734375 254.84765625 C34.15982122 259.06591505 34.47445925 263.28462449 34.75390625 267.5390625 C34.92209337 270.13338156 34.92209337 270.13338156 36 273 C36.34560525 275.34953484 36.65194643 277.70491308 36.9375 280.0625 C37.06499634 281.10313599 37.06499634 281.10313599 37.19506836 282.16479492 C37.67076458 286.09136364 38.11497314 290.02065998 38.5390625 293.953125 C38.62679932 294.76386475 38.71453613 295.57460449 38.80493164 296.40991211 C38.97416264 297.98849242 39.14011681 299.56742811 39.30249023 301.14672852 C39.63299225 304.25095054 40.00931008 307.02793024 41 310 C41.63475041 314.56956541 42.07920777 319.16219241 42.5625 323.75 C42.70107422 325.01328125 42.83964844 326.2765625 42.98242188 327.578125 C43.17868164 329.41890625 43.17868164 329.41890625 43.37890625 331.296875 C43.55788452 332.97281738 43.55788452 332.97281738 43.74047852 334.68261719 C44.49433697 344.3189565 44.49433697 344.3189565 42.00390625 347.75 C38.43354659 350.4242876 35.15812806 351.68587986 30.9375 353 C29.409261 353.50642093 27.8819174 354.01555168 26.35546875 354.52734375 C25.61087402 354.77468262 24.8662793 355.02202148 24.09912109 355.27685547 C20.28750872 356.58995106 16.60639327 358.19597778 12.90234375 359.78125 C9.73047434 361.11317901 6.52910357 362.34279368 3.3125 363.5625 C-0.2651735 364.92260728 -3.78155297 366.32022797 -7.25 367.9375 C-11.40680984 369.83385486 -15.68498884 371.32371477 -20 372.8125 C-26.64384712 375.10537326 -33.12867327 377.65607646 -39.60327148 380.38720703 C-45.36107438 382.79311519 -51.19649296 384.90128093 -57.1171875 386.87109375 C-60.59409427 388.05063609 -63.8435714 389.3738692 -67.109375 391.05859375 C-70.40063675 392.75574456 -73.60289985 393.9011759 -77.1875 394.875 C-82.96555202 396.57051584 -88.17076443 398.87560549 -93.5859375 401.484375 C-98.50342872 403.66742602 -103.55039084 405.24063955 -108.6875 406.82421875 C-111.79262255 407.92639079 -114.19591446 409.30586499 -117 411 C-118.9807457 411.68357257 -120.98353701 412.30534921 -123 412.875 C-132.22002821 415.60763279 -141.08849666 419.07382095 -149.84375 423.0390625 C-157.29131729 426.35808705 -164.9535011 429.07003422 -172.63671875 431.78515625 C-175.39174946 432.7802951 -178.10358203 433.82532073 -180.8125 434.9375 C-186.05174337 437.0835914 -191.39615424 438.91387666 -196.76098633 440.71850586 C-200.30887405 441.93870081 -203.65704116 443.27588504 -206.9921875 445 C-211.70712657 447.43441271 -216.61897083 449.04490472 -221.64453125 450.7109375 C-226.01646643 452.19755531 -230.04643852 453.96953807 -234.14697266 456.08984375 C-236.67012439 457.32914674 -239.25339228 458.17525359 -241.9375 459 C-245.45967548 460.13025034 -248.83892177 461.30454277 -252.1875 462.875 C-256.52566354 464.8894306 -260.98451356 466.43931891 -265.5 468 C-272.08989919 470.27133433 -272.08989919 470.27133433 -278.5 473 C-283.44725435 475.31902547 -288.61260944 477.00203535 -293.77026367 478.78466797 C-298.23985119 480.34184007 -302.54344439 482.06288886 -306.83203125 484.0703125 C-310.49488452 485.64104958 -314.30424196 486.77510851 -318.09375 488 C-320.64876694 488.87914561 -323.05140219 489.86441841 -325.5 491 C-328.879058 492.56471695 -332.26858687 493.79296774 -335.8125 494.9375 C-343.7508821 497.51292931 -351.35241163 500.78396624 -358.9375 504.25 C-361.34722666 505.34848801 -363.11345252 506.01804926 -365.75 506.4375 C-369.09310079 507.2732752 -370.67111062 509.54853749 -373 512 C-373.99 512.33 -374.98 512.66 -376 513 C-376.33 513.99 -376.66 514.98 -377 516 C-377.66 516 -378.32 516 -379 516 C-379 516.66 -379 517.32 -379 518 C-380.375 519.625 -380.375 519.625 -382 521 C-382.66 521 -383.32 521 -384 521 C-384 521.66 -384 522.32 -384 523 C-384.598125 523.2475 -385.19625 523.495 -385.8125 523.75 C-388.33586869 525.19192497 -389.50030076 526.52549626 -391 529 C-391 529.99 -391 530.98 -391 532 C-388.97288097 533.52963825 -388.97288097 533.52963825 -386.375 534.875 C-378.04242112 539.63479471 -370.89664146 545.6057575 -366 554 C-365.10106584 557.52523199 -364.83800186 560.86853479 -364.8125 564.5 C-364.79832031 565.4178125 -364.78414062 566.335625 -364.76953125 567.28125 C-365.21702347 572.56014125 -367.45835802 576.14586019 -371 580 C-375.79920723 582.9185757 -380.55926532 582.85728698 -386 582 C-394.22705587 579.05906394 -399.95492515 575.28419004 -403.9296875 567.41796875 C-404.28289062 566.62003906 -404.63609375 565.82210937 -405 565 C-405.31195312 564.35675781 -405.62390625 563.71351563 -405.9453125 563.05078125 C-408.35597722 557.84327736 -410 552.74550178 -410 547 C-414.31240357 549.2909644 -417.66843465 552.28461555 -421.23046875 555.57421875 C-423 557 -423 557 -425 557 C-425 557.66 -425 558.32 -425 559 C-425.66 559 -426.32 559 -427 559 C-427.33 559.99 -427.66 560.98 -428 562 C-429.32 562 -430.64 562 -432 562 C-432.09539062 562.56847656 -432.19078125 563.13695312 -432.2890625 563.72265625 C-433.16143866 566.51713593 -434.52037491 568.17986566 -436.375 570.4375 C-438.40006977 572.94709567 -440.16572702 575.28002152 -441.8125 578.0625 C-442.204375 578.701875 -442.59625 579.34125 -443 580 C-443.66 580 -444.32 580 -445 580 C-445.12375 581.093125 -445.2475 582.18625 -445.375 583.3125 C-446 587 -446 587 -448 590 C-448.66 590 -449.32 590 -450 590 C-450.09152344 590.51046875 -450.18304687 591.0209375 -450.27734375 591.546875 C-451.29020798 594.98513843 -452.93220432 598.07334465 -454.5625 601.25 C-454.89185547 601.8996875 -455.22121094 602.549375 -455.56054688 603.21875 C-456.37007565 604.81434294 -457.18455042 606.40742483 -458 608 C-458.66 608 -459.32 608 -460 608 C-460.061875 609.03125 -460.12375 610.0625 -460.1875 611.125 C-461.19355605 615.92311345 -462.57950009 617.57950009 -466 621 C-466.66 621 -467.32 621 -468 621 C-468.185625 621.66 -468.37125 622.32 -468.5625 623 C-471.45716441 629.04103877 -476.03021006 633.93856926 -482 637 C-486.16292572 639.3741927 -486.16292572 639.3741927 -489 643 C-489.66 643 -490.32 643 -491 643 C-491 644.65 -491 646.3 -491 648 C-490.34 648 -489.68 648 -489 648 C-482.70119409 658.95184306 -476.67078022 669.92933881 -478 683 C-479.934697 688.70735616 -482.54355879 692.84130924 -487.0625 696.8125 C-492.14443144 698.86689782 -497.87375872 699.08485239 -503.09375 697.2734375 C-508.12332463 694.56011434 -513.05731333 690.5042789 -515 685 C-516.04647147 679.38513927 -516.01396038 674.16162793 -515.6875 668.5 C-515.65205078 667.68402344 -515.61660156 666.86804688 -515.58007812 666.02734375 C-515.31286926 661.05805646 -514.55712133 656.72856436 -513 652 C-513.71614975 652.32498978 -514.4322995 652.64997955 -515.17015076 652.9848175 C-518.09636531 654.03457017 -520.18601206 654.24781168 -523.27758789 654.24291992 C-524.30537857 654.24599655 -525.33316925 654.24907318 -526.3921051 654.25224304 C-527.49118698 654.24505753 -528.59026886 654.23787201 -529.72265625 654.23046875 C-530.86028915 654.23001053 -531.99792206 654.22955231 -533.17002869 654.2290802 C-535.57145228 654.22606309 -537.97287401 654.21819301 -540.37426758 654.20581055 C-544.05231651 654.18755056 -547.73011358 654.185301 -551.40820312 654.18554688 C-553.74218968 654.18063149 -556.07617453 654.17480308 -558.41015625 654.16796875 C-559.51126236 654.16685593 -560.61236847 654.1657431 -561.74684143 654.16459656 C-562.77147995 654.15821671 -563.79611847 654.15183685 -564.85180664 654.14526367 C-565.75161758 654.14145187 -566.65142853 654.13764008 -567.57850647 654.13371277 C-569.8651432 654.00744668 -571.80150222 653.60951237 -574 653 C-587.33378918 651.44745298 -600.83245933 650.81355054 -614.25 650.8125 C-615.23000977 650.8117749 -616.21001953 650.8110498 -617.21972656 650.81030273 C-622.24635086 650.84936749 -627.04532056 651.14456501 -632 652 C-632 654.98538124 -630.83707931 657.52303752 -629.8515625 660.3203125 C-627.58400381 667.45584123 -626.65951474 673.65853331 -626.6875 681.125 C-626.67138672 681.99253906 -626.65527344 682.86007812 -626.63867188 683.75390625 C-626.63240415 691.98969327 -629.480472 697.05589292 -635 703 C-635.66 703 -636.32 703 -637 703 C-637 703.66 -637 704.32 -637 705 C-642.27688721 706.7589624 -648.22249881 706.99382465 -653.5 705.10546875 C-655.37907267 704.15586595 -657.197652 703.08821011 -659 702 C-659 701.34 -659 700.68 -659 700 C-659.66 700 -660.32 700 -661 700 C-664.00240828 694.98010045 -664.46475201 691.17432167 -664.375 685.5 C-664.38660156 684.76652344 -664.39820313 684.03304687 -664.41015625 683.27734375 C-664.3842799 678.45571637 -663.53055751 675.23098504 -661 671 C-660.34 671 -659.68 671 -659 671 C-658.855625 669.7625 -658.71125 668.525 -658.5625 667.25 C-658.23305718 664.42620437 -657.73620111 661.74683439 -657 659 C-668.16301456 662.27191806 -678.4539309 667.03661743 -687 675 C-687.66 675 -688.32 675 -689 675 C-689 675.66 -689 676.32 -689 677 C-689.60328125 677.24234375 -690.2065625 677.4846875 -690.828125 677.734375 C-695.8441322 679.774226 -695.8441322 679.774226 -700.0625 683.0625 C-702.91020333 685.91020333 -706.22643192 686.77795482 -710 688 C-711.28003906 688.52787109 -711.28003906 688.52787109 -712.5859375 689.06640625 C-717.33507957 690.36508469 -721.8488403 690.32905797 -726.75 690.3125 C-727.6884375 690.32861328 -728.626875 690.34472656 -729.59375 690.36132812 C-738.33784079 690.36736686 -745.88229594 688.40507215 -753.625 684.3125 C-754.46289062 683.87550781 -755.30078125 683.43851563 -756.1640625 682.98828125 C-756.76992188 682.66214844 -757.37578125 682.33601562 -758 682 C-758 681.34 -758 680.68 -758 680 C-758.5775 679.87625 -759.155 679.7525 -759.75 679.625 C-762.02335767 678.99351176 -763.9253529 678.11141809 -766 677 C-766 676.34 -766 675.68 -766 675 C-768.31 674.67 -770.62 674.34 -773 674 C-773.13535156 674.55945313 -773.27070312 675.11890625 -773.41015625 675.6953125 C-776.60637974 687.59980959 -781.03619982 698.50210621 -792 705 C-796.55694955 707.27847478 -803.46008218 706.7101314 -808.27734375 705.36328125 C-810.125 704.5625 -810.125 704.5625 -813 703 C-813.66 702.67 -814.32 702.34 -815 702 C-815 701.34 -815 700.68 -815 700 C-815.66 700 -816.32 700 -817 700 C-820.21313433 693.32656716 -820.212449 689.03961045 -818 682 C-815.21199036 674.96359471 -809.84297776 670.54453826 -804 666 C-803.34 666 -802.68 666 -802 666 C-801.67 665.01 -801.34 664.02 -801 663 C-797.46503667 660.99149811 -793.79391905 659.45061611 -790 658 C-790.45375 657.2575 -790.9075 656.515 -791.375 655.75 C-792.68640796 653.53069422 -793.88280803 651.32032178 -795 649 C-795.66 649 -796.32 649 -797 649 C-800 644.61538462 -800 644.61538462 -800 642 C-800.66 642 -801.32 642 -802 642 C-802 641.01 -802 640.02 -802 639 C-802.66 639 -803.32 639 -804 639 C-818.68557642 614.47434191 -825.11566997 589.48541432 -825.375 560.9375 C-825.39578613 559.57322876 -825.39578613 559.57322876 -825.41699219 558.18139648 C-825.38038982 553.06910498 -824.92477736 549.38369243 -822 545 C-819.3125 543.625 -819.3125 543.625 -817 543 C-811.02402563 548.82274426 -811.02402563 548.82274426 -810.9375 553.0625 C-810.958125 554.361875 -810.97875 555.66125 -811 557 C-811.08701664 571.68405834 -810.40193249 584.88561861 -806 599 C-805.68933594 600.10988281 -805.37867188 601.21976563 -805.05859375 602.36328125 C-802.7867007 610.30064818 -799.68932541 617.62134919 -796 625 C-795.27103516 626.45792969 -795.27103516 626.45792969 -794.52734375 627.9453125 C-791.30653285 634.11209177 -787.65609623 639.8051819 -783 645 C-782.67 645 -782.34 645 -782 645 C-781.84144531 643.81664062 -781.68289063 642.63328125 -781.51953125 641.4140625 C-780.23840003 632.52415852 -778.91032104 624.72453666 -774 617 C-773.34 617 -772.68 617 -772 617 C-771.6596875 616.13375 -771.6596875 616.13375 -771.3125 615.25 C-768.92835772 611.16289895 -765.9290073 609.35471188 -761.5625 607.6875 C-755.2985712 606.47867164 -750.62290298 608.13550226 -745 611 C-741.0131745 614.70205225 -739.19488559 620.90348458 -738.859375 626.234375 C-739.42490679 635.09437304 -744.09250144 642.62611998 -750 649 C-750.556875 649.61875 -751.11375 650.2375 -751.6875 650.875 C-753 652 -753 652 -755 652 C-755 652.66 -755 653.32 -755 654 C-755.66 654 -756.32 654 -757 654 C-757 654.66 -757 655.32 -757 656 C-763.75 660 -763.75 660 -766 660 C-766 660.99 -766 661.98 -766 663 C-764.88818359 663.16242188 -764.88818359 663.16242188 -763.75390625 663.328125 C-760.83935585 664.03919262 -759.31974514 664.96905373 -756.9375 666.75 C-744.76507143 674.95746812 -732.53857862 677.32978135 -718 675 C-712.15253611 673.29573813 -707.08804649 670.27796012 -702 667 C-700.95070313 666.35675781 -699.90140625 665.71351563 -698.8203125 665.05078125 C-696.18618228 663.40534218 -693.59393 661.70767058 -691 660 C-684.48672566 656 -684.48672566 656 -682 656 C-681.67 655.01 -681.34 654.02 -681 653 C-672.92533796 648.16732234 -663.12741241 645.15778071 -654 643 C-654.90590531 640.00354398 -655.77946539 637.35477307 -657.4375 634.6875 C-661.31973412 628.01005732 -662.29443586 621.88975934 -662.375 614.25 C-662.38877686 613.5168457 -662.40255371 612.78369141 -662.41674805 612.02832031 C-662.36755295 606.2849573 -660.95262829 603.29084335 -657.30859375 599.015625 C-652.87791292 594.83469027 -649.53405859 593.03679149 -643.390625 592.8671875 C-638.10619592 593.16076689 -635.07731253 593.94717185 -631.25 597.6875 C-626.57107179 603.99789659 -624.86508299 610.83280115 -624.8125 618.5625 C-624.79832031 619.49191406 -624.78414062 620.42132812 -624.76953125 621.37890625 C-625.10521863 626.6531809 -626.06632668 631.80264003 -627 637 C-626.21052979 636.99476318 -625.42105957 636.98952637 -624.60766602 636.98413086 C-585.51327672 636.75930326 -585.51327672 636.75930326 -579.18115234 638.5 C-576.43756215 639.12893135 -573.8250861 639.21880182 -571.01171875 639.31640625 C-569.83786621 639.35846191 -568.66401367 639.40051758 -567.45458984 639.44384766 C-566.2114502 639.48300293 -564.96831055 639.5221582 -563.6875 639.5625 C-562.41600098 639.6042334 -561.14450195 639.6459668 -559.83447266 639.68896484 C-545.1496131 640.14945257 -530.65981964 639.94037789 -516 639 C-516.78130071 636.50447516 -516.78130071 636.50447516 -518 634 C-518.99 633.67 -519.98 633.34 -521 633 C-521.28875 632.401875 -521.5775 631.80375 -521.875 631.1875 C-523.35785101 628.30417859 -525.46095397 626.98169446 -528 625 C-533.51648992 618.66625231 -534.0673852 611.1247303 -534 603 C-533.02137152 596.9695326 -530.88124841 592.83526661 -526 589 C-520.70954358 586.53171013 -515.74388439 585.81214908 -510 587 C-506.49152319 589.22119395 -503.62078446 591.77740578 -501 595 C-501 595.66 -501 596.32 -501 597 C-500.34 597 -499.68 597 -499 597 C-494.41845235 606.7878518 -493.58064108 616.25814009 -493 627 C-492.01 627 -491.02 627 -490 627 C-489.34 627 -488.68 627 -488 627 C-487.73960937 626.4328125 -487.47921875 625.865625 -487.2109375 625.28125 C-485.89131636 622.79525405 -484.36127991 620.71394643 -482.625 618.5 C-482.03976562 617.7471875 -481.45453125 616.994375 -480.8515625 616.21875 C-479 614 -479 614 -476.92578125 611.9453125 C-469.65133644 604.59709036 -465.59225879 593.71705154 -461.8984375 584.24609375 C-459.75886195 578.89715488 -456.8833585 573.97130775 -454 569 C-453.34 569 -452.68 569 -452 569 C-451.7525 568.195625 -451.505 567.39125 -451.25 566.5625 C-450 564 -450 564 -447.875 563.1875 C-446.946875 563.0946875 -446.946875 563.0946875 -446 563 C-445.67 561.68 -445.34 560.36 -445 559 C-443.68 558.67 -442.36 558.34 -441 558 C-440.9175 557.236875 -440.835 556.47375 -440.75 555.6875 C-439.84730645 552.45284809 -438.86406539 551.64900735 -436 550 C-435.34 550 -434.68 550 -434 550 C-433.62875 549.1028125 -433.62875 549.1028125 -433.25 548.1875 C-431.81927475 545.68373081 -430.4308418 544.51927612 -428 543 C-427.34 543 -426.68 543 -426 543 C-426 542.34 -426 541.68 -426 541 C-424.3545622 539.31237149 -422.68711423 537.6459651 -421 536 C-420.67 535.34 -420.34 534.68 -420 534 C-421.72669922 533.86851562 -421.72669922 533.86851562 -423.48828125 533.734375 C-428.23199954 533.13683991 -431.97873086 531.44097647 -436.1875 529.25 C-436.87263672 528.91484375 -437.55777344 528.5796875 -438.26367188 528.234375 C-442.5797255 526.0410388 -445.75209933 523.66903166 -449 520 C-449.58136719 519.34386719 -450.16273438 518.68773437 -450.76171875 518.01171875 C-453.90245809 512.90925579 -453.37143947 505.77320931 -452.3125 500.0625 C-451.31370218 496.38271856 -450.24950076 494.19560862 -447 492 C-439.5972959 489.09697878 -432.19136721 488.91761804 -424.859375 492.01171875 C-420.7801893 494.17985737 -417.50266184 496.49201448 -416 501 C-415.34 501.33 -414.68 501.66 -414 502 C-414 502.66 -414 503.32 -414 504 C-413.34 504 -412.68 504 -412 504 C-405.66514806 515.52164009 -405.66514806 515.52164009 -403 521 C-402.21625 520.34 -401.4325 519.68 -400.625 519 C-398 517 -398 517 -396 517 C-396 516.34 -396 515.68 -396 515 C-394.625 513.375 -394.625 513.375 -393 512 C-392.34 512 -391.68 512 -391 512 C-390.6596875 511.1646875 -390.6596875 511.1646875 -390.3125 510.3125 C-388.63848923 507.36305245 -386.45043651 505.3247731 -384 503 C-381.81033702 500.81033702 -382.28186012 496.0392824 -382 493 C-381.91169922 492.06736328 -381.82339844 491.13472656 -381.73242188 490.17382812 C-380.9936266 481.89384851 -380.66947215 473.6198635 -380.39453125 465.3137207 C-380.1228962 457.71437901 -379.52508935 450.19766756 -378.73266602 442.63671875 C-378.00909394 435.59259177 -377.61063024 428.55659368 -377.34179688 421.48120117 C-377.31021484 420.70365479 -377.27863281 419.9261084 -377.24609375 419.125 C-377.21020142 418.10792969 -377.21020142 418.10792969 -377.17358398 417.0703125 C-377 415 -377 415 -376.51586914 412.65161133 C-375.91759247 409.5764183 -375.69836183 406.5758528 -375.5 403.44921875 C-375.4175 402.19302734 -375.335 400.93683594 -375.25 399.64257812 C-375.1675 398.33740234 -375.085 397.03222656 -375 395.6875 C-374.07409468 381.16959397 -374.07409468 381.16959397 -373.46875 376.74609375 C-372.75572976 371.0478737 -372.61262609 365.3366489 -372.39453125 359.6015625 C-372.35714844 358.70953125 -372.31976562 357.8175 -372.28125 356.8984375 C-372.25095703 356.10099121 -372.22066406 355.30354492 -372.18945312 354.48193359 C-372 352 -372 352 -371.51367188 349.16625977 C-370.93250183 345.58394308 -370.70020713 342.0650212 -370.5 338.44140625 C-370.45939453 337.73402817 -370.41878906 337.02665009 -370.37695312 336.2978363 C-370.24821666 334.05288596 -370.12362206 331.80773739 -370 329.5625 C-369.83678923 326.60526113 -369.66950411 323.64829027 -369.5 320.69140625 C-369.4278125 319.38373291 -369.355625 318.07605957 -369.28125 316.72875977 C-369.00876305 313.11617881 -368.51921093 309.5839431 -368 306 C-367.88738813 304.28167906 -367.80360228 302.56113356 -367.75390625 300.83984375 C-367.72232422 299.89246338 -367.69074219 298.94508301 -367.65820312 297.96899414 C-367.62662109 296.96860107 -367.59503906 295.96820801 -367.5625 294.9375 C-367.23437107 285.86598655 -366.61769907 276.86878971 -365.73291016 267.83569336 C-365.0426074 260.73904434 -364.58954331 253.65257141 -364.24609375 246.53125 C-364 243 -364 243 -363.5 240.1640625 C-362.80151959 235.74399116 -362.7156188 231.34278779 -362.5625 226.875 C-362.24106086 218.68238792 -361.62400652 210.58118026 -360.73291016 202.43261719 C-359.9963728 195.50391492 -359.60783329 188.58234405 -359.34179688 181.62060547 C-359.21115067 178.39511056 -359.05310473 175.30576709 -358.5 172.12109375 C-357.74582082 167.41336591 -357.71091538 162.69777187 -357.5625 157.9375 C-357.24831021 149.16880911 -356.64796903 140.4907129 -355.73291016 131.76586914 C-354.98213523 124.40672544 -354.60248741 117.05315061 -354.34179688 109.66137695 C-354.31021484 108.83210693 -354.27863281 108.00283691 -354.24609375 107.1484375 C-354.21020142 106.05281494 -354.21020142 106.05281494 -354.17358398 104.93505859 C-354 103 -354 103 -353 100 C-352.80154586 97.5800279 -352.64891347 95.17793032 -352.53515625 92.75390625 C-352.45788719 91.27025723 -352.38048965 89.7866149 -352.30297852 88.30297852 C-352.26391388 87.52785919 -352.22484924 86.75273987 -352.18460083 85.95413208 C-351.6244934 74.98311 -351.06002691 64.00356134 -350.0625 53.0625 C-350.00006104 52.27883057 -349.93762207 51.49516113 -349.87329102 50.68774414 C-349.46324764 46.54644698 -348.85718463 44.04194576 -346 41 C-343.90185547 40.20922852 -343.90185547 40.20922852 -341.4921875 39.81640625 C-340.60499023 39.66961426 -339.71779297 39.52282227 -338.80371094 39.37158203 C-334.25236196 38.76838165 -329.7002516 38.3144011 -325.125 37.9375 C-323.29402863 37.78278803 -321.46328575 37.62534177 -319.6328125 37.46484375 C-318.83762207 37.399021 -318.04243164 37.33319824 -317.22314453 37.26538086 C-315.07570239 37.00903673 -313.09188025 36.53546973 -311 36 C-308.83555235 35.82427809 -306.66827045 35.68214555 -304.5 35.5625 C-297.89143159 35.12511802 -291.51109427 34.17062981 -285 33 C-273.31568503 31.06262644 -261.57659397 29.66592168 -249.796875 28.46484375 C-248.93465332 28.37654297 -248.07243164 28.28824219 -247.18408203 28.19726562 C-245.50832043 28.02716351 -243.83221893 27.86036963 -242.15576172 27.69726562 C-238.95022534 27.37392693 -236.067302 27.022434 -233 26 C-231.50672603 25.79973788 -230.00820987 25.63703935 -228.5078125 25.5 C-227.20263672 25.37625 -227.20263672 25.37625 -225.87109375 25.25 C-224.96488281 25.1675 -224.05867187 25.085 -223.125 25 C-218.01542244 24.53082789 -213.03123052 24.01984402 -208 23 C-204.39524885 22.7057346 -200.79002533 22.49496979 -197.1796875 22.28125 C-193.97971907 22.1218015 -193.97971907 22.1218015 -191 21 C-189.25977695 20.72921988 -187.51385644 20.4942875 -185.765625 20.28125 C-184.72374023 20.15419678 -183.68185547 20.02714355 -182.60839844 19.89624023 C-180.94599121 19.70010132 -180.94599121 19.70010132 -179.25 19.5 C-178.11852539 19.364729 -176.98705078 19.22945801 -175.82128906 19.09008789 C-168.63398616 18.25102114 -161.489593 17.64711844 -154.265625 17.2421875 C-149.90142139 16.91852647 -145.62851479 16.24781983 -141.3125 15.5390625 C-132.97125561 14.18164301 -124.62088634 13.06486842 -116.1875 12.5 C-111.49521568 12.17916005 -107.07466398 11.48601414 -102.48828125 10.47265625 C-98.79712958 9.77151127 -95.09208226 9.51008925 -91.34765625 9.24609375 C-88.84905665 9.06946358 -88.84905665 9.06946358 -86 8 C-83.02050158 7.6506795 -80.04870021 7.3407139 -77.0625 7.0625 C-76.18601807 6.97750244 -75.30953613 6.89250488 -74.40649414 6.80493164 C-70.65527599 6.44126418 -66.90329252 6.08577718 -63.15136719 5.72949219 C-60.41313331 5.46830096 -57.67531868 5.20300222 -54.9375 4.9375 C-53.66241577 4.81870483 -53.66241577 4.81870483 -52.36157227 4.69750977 C-49.0871052 4.37963596 -46.13219692 4.04406564 -43 3 C-40.3122721 2.65272571 -37.6323462 2.34168937 -34.9375 2.0625 C-33.31505954 1.89104675 -31.69266497 1.7191588 -30.0703125 1.546875 C-28.81782715 1.41442383 -28.81782715 1.41442383 -27.54003906 1.27929688 C-25.04181669 1.00459807 -22.54852124 0.70247836 -20.0546875 0.390625 C-19.2594165 0.29386475 -18.46414551 0.19710449 -17.64477539 0.09741211 C-16.13008704 -0.08762309 -14.61617228 -0.27914839 -13.10327148 -0.47827148 C-8.45252558 -1.03283925 -4.55931197 -0.84254651 0 0 Z " fill="#031F3A" transform="translate(991,245)"/>
<path d="M0 0 C4.95370611 1.3209883 7.38260892 3.91766572 11.0234375 7.4375 C14.65985037 10.85510293 18.60375591 13.73131509 22.6171875 16.6875 C25.83870098 19.06547504 29.01834827 21.49057801 32.1875 23.9375 C32.72737549 24.35378662 33.26725098 24.77007324 33.82348633 25.19897461 C34.91879756 26.04371486 36.01393072 26.88868606 37.10888672 27.73388672 C39.27987138 29.40879396 41.45329773 31.08051414 43.62695312 32.75195312 C45.25289521 34.00222628 46.87840001 35.25306652 48.50390625 36.50390625 C50.6560347 38.15953886 52.80979665 39.81301227 54.96484375 41.46484375 C61.06341745 46.14223776 67.1303472 50.85690926 73.16772461 55.61303711 C78.01345072 59.42812503 82.8793253 63.21683205 87.75 67 C93.20057233 71.23358812 98.64117439 75.47902339 104.0625 79.75 C108.43667962 83.19541546 112.83127469 86.61191035 117.25 90 C127.50675384 97.87106518 137.63338985 105.8830758 147.63012695 114.08203125 C152.40230022 117.97042596 157.29325721 121.66370596 162.25 125.3125 C174.97369969 134.75335643 174.97369969 134.75335643 177.75 139 C177.79731084 140.66599504 177.80180786 142.33413874 177.75 144 C177.0701001 144.25168945 176.3902002 144.50337891 175.68969727 144.76269531 C172.56284881 145.92214528 169.43767295 147.08604183 166.3125 148.25 C165.24322266 148.64574219 164.17394531 149.04148437 163.07226562 149.44921875 C158.48054688 151.16233706 153.91977784 152.87601509 149.46484375 154.921875 C145.52568478 156.71498158 141.50621642 158.24835302 137.44921875 159.75 C131.29562528 162.02869072 125.17911248 164.38656871 119.08203125 166.8125 C118.24059067 167.14715271 117.39915009 167.48180542 116.5322113 167.82659912 C114.78024035 168.52388239 113.02838604 169.22145877 111.27664185 169.91931152 C94.50612447 176.59681989 77.68728793 183.12576227 60.77856445 189.4453125 C52.69753096 192.47008642 44.69752277 195.63766967 36.75 199 C26.58052795 203.19199611 16.37577535 207.20265554 5.97387695 210.78100586 C0.98737892 212.51459993 -3.88436939 214.45330609 -8.75 216.5 C-14.1965593 218.79054527 -19.66030017 220.89809987 -25.25 222.8125 C-33.16832322 225.5392181 -40.92009781 228.62568639 -48.68457031 231.76049805 C-58.261893 235.62115181 -67.87475299 239.38567483 -77.5 243.125 C-78.28145386 243.42878571 -79.06290771 243.73257141 -79.86804199 244.04556274 C-88.66832589 247.46542308 -97.47808284 250.85663474 -106.3125 254.1875 C-114.12057809 257.13243716 -121.84366703 260.26664589 -129.5625 263.4375 C-138.87944319 267.26149188 -148.2330785 270.93695164 -157.67651367 274.4362793 C-163.73630229 276.68191595 -169.7824236 278.95952666 -175.81640625 281.2734375 C-176.93720329 281.7031636 -176.93720329 281.7031636 -178.0806427 282.14157104 C-181.06652586 283.28703392 -184.05213162 284.43320386 -187.03665161 285.58221436 C-196.39742935 289.18566312 -205.78665094 292.67398492 -215.25 296 C-216.735 294.515 -216.735 294.515 -218.25 293 C-214.4376518 285.23410551 -209.9830396 278.45910231 -204.34570312 271.88256836 C-200.80657013 267.73245137 -197.50314376 263.43960858 -194.25 259.0625 C-193.74549316 258.38413086 -193.24098633 257.70576172 -192.72119141 257.00683594 C-191.71565274 255.65425868 -190.71027945 254.30155845 -189.70507812 252.94873047 C-187.49470001 249.98845562 -185.25235276 247.05340888 -183 244.125 C-182.20078125 243.08472656 -181.4015625 242.04445313 -180.578125 240.97265625 C-177.74465137 237.3547478 -174.81723477 233.81999999 -171.84375 230.31640625 C-170.00678045 227.64649707 -169.21211302 225.08124988 -168.25 222 C-167.59 221.01 -166.93 220.02 -166.25 219 C-164.93 219 -163.61 219 -162.25 219 C-162.25 217.35 -162.25 215.7 -162.25 214 C-161.59 214 -160.93 214 -160.25 214 C-160.04375 213.154375 -159.8375 212.30875 -159.625 211.4375 C-157.78876066 206.84690165 -154.79211452 202.27105726 -150.25 200 C-149.23829155 198.10912133 -148.40154719 196.16773243 -147.54296875 194.203125 C-145.85499916 191.32694721 -143.62764646 189.33192249 -141.25 187 C-139.73765044 185.13053033 -138.26047654 183.23226092 -136.8125 181.3125 C-135.94208754 180.16484755 -135.07095062 179.01774432 -134.19921875 177.87109375 C-133.7304834 177.25347168 -133.26174805 176.63584961 -132.77880859 175.99951172 C-130.52642336 173.05364218 -128.23916313 170.13539581 -125.95410156 167.21484375 C-115.43893869 154.94041432 -115.43893869 154.94041432 -107.625 141.0625 C-105.89230517 137.20331605 -103.8158344 136.15435828 -100.25 134 C-97.90569277 131.29857472 -96.76436039 128.8828075 -95.6875 125.5 C-93.46246775 119.6753982 -89.7437679 115.42488155 -85.69921875 110.80859375 C-83.7469595 108.56987859 -81.93645562 106.33312829 -80.1875 103.9375 C-77.99414169 100.95041258 -75.68630644 98.09592036 -73.3125 95.25 C-68.30604013 89.17977294 -63.62632325 82.87877832 -58.92480469 76.57104492 C-45.84341252 59.04507989 -45.84341252 59.04507989 -40.13671875 52.62109375 C-38.46791777 50.30273877 -37.72551242 48.75908967 -36.828125 46.12109375 C-35.30293954 41.73772719 -32.95201925 38.5987783 -30 35.0625 C-29.00902104 33.8386174 -28.01813548 32.61465917 -27.02734375 31.390625 C-26.54894043 30.80732422 -26.07053711 30.22402344 -25.57763672 29.62304688 C-21.25969079 24.34432225 -17.16840746 18.91071471 -13.1875 13.375 C-11.87639319 11.58231357 -10.56398693 9.79057645 -9.25 8 C-8.7240625 7.25621094 -8.198125 6.51242187 -7.65625 5.74609375 C-5.23355909 2.55664695 -3.90175847 1.20054107 0 0 Z " fill="#F5F25B" transform="translate(843.25,442)"/>
<path d="M0 0 C4.0084657 -0.46483714 5.70612988 -0.18803323 9.15625 2.01953125 C10.28264414 2.93619577 11.39668807 3.86817993 12.5 4.8125 C13.73403472 5.82593532 14.96841993 6.83894399 16.203125 7.8515625 C16.83025391 8.37395508 17.45738281 8.89634766 18.10351562 9.43457031 C21.1053654 11.91241027 24.17945145 14.29578413 27.25 16.6875 C31.20610586 19.78977397 35.14535649 22.91106629 39.0625 26.0625 C44.96967185 30.80175062 50.98720787 35.39629111 57 40 C64.2894274 45.584465 71.5487797 51.20312908 78.76049805 56.88769531 C82.73496965 60.01685226 86.73422064 63.1115839 90.75 66.1875 C94.53259314 69.08538162 98.28775055 72.01223794 102 75 C109.85026634 81.31324008 117.86214552 87.41593074 125.9375 93.4375 C130.92240507 97.16306063 135.82605399 100.98057639 140.7097168 104.83691406 C144.69936683 107.98550868 148.7153534 111.09684002 152.75 114.1875 C153.82056271 115.01139373 154.89088081 115.83560542 155.9609375 116.66015625 C157.89942092 118.15263899 159.84174749 119.6401525 161.7890625 121.12109375 C167.08792115 125.22730899 172.09623499 129.49336459 176 135 C176 135.66 176 136.32 176 137 C175.01 137.66 174.02 138.32 173 139 C172.88269531 139.71414063 172.76539063 140.42828125 172.64453125 141.1640625 C171.6982478 145.32770967 169.28366911 148.04832986 166.6875 151.375 C166.15205566 152.07471924 165.61661133 152.77443848 165.06494141 153.49536133 C160.41718707 159.54043088 155.64724438 165.48836013 150.86328125 171.42578125 C145.42487219 178.18974577 140.18921102 185.11225887 134.9453125 192.02734375 C129.46816751 199.23734266 123.92861869 206.37267637 118.1875 213.375 C108.70287714 224.3537138 108.70287714 224.3537138 102.0625 237.0625 C100.2271576 242.13948612 97.3071504 245.25580809 93.61328125 249.125 C90.57011716 252.47293538 87.87774797 255.99189997 85.1875 259.625 C84.68299316 260.30554443 84.17848633 260.98608887 83.65869141 261.68725586 C82.62353383 263.08725334 81.58969102 264.48822387 80.55712891 265.89013672 C78.01411425 269.33584582 75.44508636 272.76195978 72.875 276.1875 C72.12839111 277.18293823 72.12839111 277.18293823 71.36669922 278.19848633 C65.24171179 286.35475035 59.09519602 294.48763358 52.625 302.375 C51.89796875 303.26316406 51.1709375 304.15132812 50.421875 305.06640625 C49.13912164 306.62019298 47.85420566 308.17230688 46.55273438 309.71044922 C41.10297306 316.15217789 36.10809643 322.21285071 32.5625 329.9375 C28.83314309 337.97412869 23.40947234 344.19590007 17.72167969 350.92480469 C14.87903356 354.35113652 12.18891045 357.89004517 9.5 361.4375 C8.96640869 362.1402002 8.43281738 362.84290039 7.88305664 363.56689453 C6.80087799 364.99274353 5.71925479 366.41901428 4.63818359 367.84570312 C2.98208941 370.02355336 1.31515558 372.19265526 -0.35546875 374.359375 C-5.51904452 381.05967549 -10.65150051 387.78191726 -15.625 394.625 C-16.40101563 395.68976563 -17.17703125 396.75453125 -17.9765625 397.8515625 C-19.49813059 400.21909895 -20.58600342 402.20171776 -21.64453125 404.7578125 C-23.02937126 408.07025401 -24.37454943 409.62862529 -27 412 C-27.66 412.99 -28.32 413.98 -29 415 C-30.32 414.34 -31.64 413.68 -33 413 C-33.1791945 401.47091525 -32.69085419 390.16464864 -31.625 378.6875 C-31.36360372 375.79588659 -31.10669558 372.90389108 -30.8515625 370.01171875 C-30.78393707 369.24962601 -30.71631165 368.48753326 -30.64663696 367.7023468 C-30.04217403 360.76249747 -29.54816834 353.81623237 -29.0625 346.8671875 C-28.35585746 336.78022844 -27.59286202 326.69952278 -26.7734375 316.62109375 C-26.71896894 315.95093105 -26.66450039 315.28076836 -26.60838127 314.5902977 C-26.37948676 311.77490171 -26.15032224 308.95952785 -25.92083263 306.1441803 C-23.17214524 272.41597356 -20.59161009 238.67579996 -18.07312775 204.92967606 C-17.8166701 201.4933756 -17.55993032 198.05709631 -17.30316162 194.62081909 C-15.62674593 172.17421389 -13.97276377 149.72634062 -12.3828125 127.2734375 C-11.36491774 112.90346763 -10.27641366 98.54241891 -9.0625 84.1875 C-7.94487268 70.90357909 -6.88638418 57.6191485 -5.9609375 44.3203125 C-5.78784606 41.87474403 -5.61458912 39.42918727 -5.44116211 36.98364258 C-5.18883476 33.42298319 -4.94076863 29.86231723 -4.70706177 26.30038452 C-4.49164476 23.0183879 -4.26092306 19.73777775 -4.02734375 16.45703125 C-3.9680368 15.48432281 -3.90872986 14.51161438 -3.84762573 13.50942993 C-3.46391056 8.33765429 -2.77073113 4.52805593 0 0 Z " fill="#6EBDB6" transform="translate(658,301)"/>
<path d="M0 0 C2.77879022 3.28590853 3.50093584 6.49992244 4.140625 10.69140625 C4.32020752 11.7911377 4.49979004 12.89086914 4.68481445 14.02392578 C4.87132568 15.19165527 5.05783691 16.35938477 5.25 17.5625 C11.00716749 50.78324221 25.03660093 79.97194035 52 101 C57.55806597 105.51875282 57.55806597 105.51875282 59.2734375 107.38671875 C65.17999968 112.90574631 73.38825867 116.99973982 80.81640625 120.06640625 C83.3199859 121.13680971 85.70835718 122.37125297 88.125 123.625 C92.01928494 125.59320892 95.74671161 126.95674058 100 128 C106.61363636 129.85645933 106.61363636 129.85645933 109.5234375 130.9375 C114.30901181 132.40005754 119.12767546 133.20117939 124.0625 134 C125.13781982 134.17805176 126.21313965 134.35610352 127.32104492 134.53955078 C133.52542384 135.50431151 139.682779 136.17571458 145.953125 136.4921875 C147.26273193 136.56050781 148.57233887 136.62882813 149.92163086 136.69921875 C152.48125997 136.81485739 155.04223898 136.90414186 157.60375977 136.96484375 C166.26889348 137.33766616 166.26889348 137.33766616 169.69921875 140.4453125 C172.4519362 147.96775359 173.34037812 155.92624382 174.19140625 163.85546875 C174.41174958 165.82626619 174.63221496 167.79704999 174.8527832 169.76782227 C174.96788239 170.81011993 175.08298157 171.8524176 175.2015686 172.92630005 C178.09031041 199.0275612 181.36875793 225.07450584 184.71999168 251.11958694 C185.10482391 254.11246405 185.48830694 257.10551338 185.87169647 260.09857559 C186.13540645 262.1516176 186.40150054 264.20434023 186.66778564 266.25704956 C187.59639083 273.49537072 188.40813747 280.72605007 189 288 C184.78964595 286.40975677 181.64762624 284.43286694 178.0625 281.6875 C177.53253418 281.28378174 177.00256836 280.88006348 176.45654297 280.46411133 C173.79749449 278.42785508 171.17828758 276.35474675 168.625 274.1875 C166.64307432 272.53589526 164.78551113 271.18282419 162.625 269.8125 C161.75875 269.214375 160.8925 268.61625 160 268 C160 267.34 160 266.68 160 266 C159.26394531 265.73960937 158.52789063 265.47921875 157.76953125 265.2109375 C154.93239476 263.97044059 153.04841442 262.61269704 150.6875 260.625 C146.20460816 256.93399624 141.60511252 253.45056373 136.9375 250 C131.68489668 246.10485909 126.64954719 242.12431659 121.89453125 237.62109375 C119.73540927 235.77359762 117.44223511 234.4480841 115 233 C113.47852454 231.84014283 111.97923092 230.65077331 110.5 229.4375 C106.54444622 226.2294988 102.54553166 223.0927345 98.5 220 C94.52675587 216.95924602 90.58537373 213.88745904 86.6875 210.75 C83.25824345 207.99120707 79.78564204 205.31311368 76.25390625 202.6875 C68.49053201 196.87506036 60.84216277 190.91759969 53.30078125 184.8203125 C50.40113257 182.52619317 47.41648133 180.36185833 44.3984375 178.2265625 C43.93695312 177.82179688 43.47546875 177.41703125 43 177 C43 176.34 43 175.68 43 175 C42.2575 174.731875 41.515 174.46375 40.75 174.1875 C38.10938051 173.04723249 36.14447156 171.90619694 34 170 C34 169.34 34 168.68 34 168 C33.27425781 167.74734375 32.54851562 167.4946875 31.80078125 167.234375 C28.79632823 165.91023671 26.70468855 164.34833488 24.1875 162.25 C21.2685996 159.85324894 18.35774926 157.48406933 15.3125 155.25 C10.60554196 151.76052398 6.0663403 148.06309945 1.50048828 144.39257812 C-2.32929413 141.31954461 -6.19285158 138.31374915 -10.14453125 135.3984375 C-12.30336116 133.77136149 -14.39926466 132.07642201 -16.5 130.375 C-19.67922779 127.80371232 -22.90422227 125.31594831 -26.1953125 122.890625 C-26.92556641 122.35131348 -27.65582031 121.81200195 -28.40820312 121.25634766 C-29.87417288 120.17753599 -31.34417991 119.10418694 -32.81835938 118.03662109 C-33.48931641 117.54242676 -34.16027344 117.04823242 -34.8515625 116.5390625 C-35.45822754 116.09771973 -36.06489258 115.65637695 -36.68994141 115.20166016 C-37.12226074 114.8051123 -37.55458008 114.40856445 -38 114 C-38 113.34 -38 112.68 -38 112 C-38.74121094 111.73316406 -39.48242188 111.46632813 -40.24609375 111.19140625 C-42.94307735 110.02462611 -44.79586205 108.78487544 -47.0625 106.9375 C-50.61587584 104.09126363 -54.21618959 101.33470265 -57.875 98.625 C-61.74738901 95.7329009 -65.53173832 92.77488545 -69.25 89.6875 C-73.70866388 85.99446527 -78.28883926 82.50949588 -82.9375 79.0625 C-88.87392389 74.65918147 -94.56767029 70.07625244 -100.20703125 65.296875 C-102.90275522 63.07997193 -105.65915404 61.026281 -108.5 59 C-112.37807201 56.23390013 -116.05348797 53.32983746 -119.6875 50.25 C-124.29339251 46.35316468 -129.02029598 42.70545316 -133.875 39.125 C-139.39410531 35.03770981 -144.76516902 30.82170484 -150 26.375 C-150.60569824 25.86598145 -151.21139648 25.35696289 -151.83544922 24.83251953 C-153.26471384 23.60114664 -154.63864067 22.30605411 -156 21 C-156 20.34 -156 19.68 -156 19 C-138.38102083 16.18915185 -120.74947768 13.63292606 -103.03515625 11.5 C-101.75687517 11.34599228 -101.75687517 11.34599228 -100.45277023 11.18887329 C-94.3235041 10.45227749 -88.19310771 9.72533129 -82.0625 9 C-75.07351276 8.17249926 -68.08521638 7.3394661 -61.09765625 6.5 C-59.82795927 6.34830353 -59.82795927 6.34830353 -58.53261185 6.19354248 C-49.37203142 5.09554081 -40.23106141 3.92292619 -31.10888672 2.5390625 C-30.32123523 2.41992493 -29.53358374 2.30078735 -28.72206402 2.17803955 C-25.01654156 1.61421001 -21.314032 1.03602059 -17.61427307 0.43554688 C-16.31513474 0.23251953 -15.0159964 0.02949219 -13.67749023 -0.1796875 C-12.55108627 -0.36257324 -11.42468231 -0.54545898 -10.2641449 -0.73388672 C-6.63456068 -1.02979287 -3.55754784 -0.76636872 0 0 Z " fill="#ED94B7" transform="translate(830,276)"/>
<path d="M0 0 C2.1809845 -0.14057922 2.1809845 -0.14057922 5.6809845 0.23442078 C9.40084244 4.56878166 9.51268206 9.73594529 10.07551575 15.19145203 C10.18808716 16.18567673 10.30065857 17.17990143 10.41664124 18.20425415 C10.65905075 20.35634954 10.89606254 22.5090583 11.12828064 24.66227722 C11.62496608 29.26546842 12.14787894 33.86556879 12.66925049 38.46601868 C12.93910379 40.84931176 13.20761223 43.23275747 13.474823 45.61634827 C14.80060047 57.41811952 16.25730442 69.20193776 17.7434845 80.98442078 C17.9915227 82.96113691 18.23948857 84.93786213 18.48738098 86.91459656 C19.69470644 96.52251462 20.92244307 106.12764441 22.16926575 115.73051453 C22.28748184 116.64324127 22.40569794 117.55596802 22.52749634 118.49635315 C23.08353928 122.7888565 23.64258283 127.08091258 24.20857239 131.37211609 C24.40521954 132.8821924 24.60175924 134.39228271 24.798172 135.90238953 C24.96945618 137.20458435 25.14074036 138.50677917 25.31721497 139.84843445 C25.62192374 142.68468008 25.75792888 145.38713798 25.6809845 148.23442078 C-1.39259292 149.04303426 -26.79108409 145.00059639 -52.0065155 135.10942078 C-53.66638489 134.46154602 -53.66638489 134.46154602 -55.35978699 133.80058289 C-56.89228088 133.17615295 -56.89228088 133.17615295 -58.45573425 132.53910828 C-59.3705658 132.16769714 -60.28539734 131.79628601 -61.22795105 131.41362 C-63.3190155 130.23442078 -63.3190155 130.23442078 -64.3190155 127.23442078 C-65.97968871 126.55296153 -67.64801821 125.8901572 -69.3190155 125.23442078 C-71.80495673 123.64758731 -74.1496715 121.88072091 -76.5065155 120.10942078 C-77.49953674 119.37018372 -77.49953674 119.37018372 -78.51261902 118.61601257 C-106.86245727 97.41649193 -125.59105854 70.78713422 -130.85417175 35.24223328 C-131.57208967 29.621031 -132.01372851 23.87332508 -131.3190155 18.23442078 C-128.81587327 15.73127854 -127.59086919 15.79953881 -124.1146698 15.36405945 C-122.43725456 15.14717216 -122.43725456 15.14717216 -120.72595215 14.92590332 C-119.48178024 14.77376877 -118.23760834 14.62163422 -116.95573425 14.46488953 C-115.62585246 14.29596047 -114.29607715 14.12619145 -112.96640015 13.95565796 C-110.02488056 13.57968571 -107.08278504 13.20869171 -104.14024353 12.84080505 C-99.08035058 12.2067298 -94.0230741 11.55305561 -88.96598816 10.89701843 C-79.61739936 9.68530714 -70.26743287 8.48462007 -60.91691589 7.28788757 C-56.04673417 6.66451256 -51.17689232 6.03852101 -46.30711842 5.41196918 C-42.49897516 4.92245438 -38.69060116 4.43475351 -34.88216209 3.94754601 C-33.08533492 3.71738027 -31.28859086 3.48656457 -29.49193764 3.25504494 C-19.66851735 1.98989655 -9.85149209 0.99585122 0 0 Z " fill="#6EBDB6" transform="translate(973.3190155029297,256.7655792236328)"/>
<path d="M0 0 C3 2 3 2 3.6875 4.625 C3.790625 5.40875 3.89375 6.1925 4 7 C0.56564964 9.96818441 -2.50496329 11.82551303 -6.75390625 13.40234375 C-7.85669922 13.81806641 -8.95949219 14.23378906 -10.09570312 14.66210938 C-11.81176758 15.29342773 -11.81176758 15.29342773 -13.5625 15.9375 C-15.81443988 16.77824155 -18.06574586 17.62068301 -20.31640625 18.46484375 C-21.43015625 18.8810498 -22.54390625 19.29725586 -23.69140625 19.72607422 C-26.90015903 20.96155769 -30.0606441 22.27888476 -33.22265625 23.62890625 C-38.36030992 25.79433558 -43.51299755 27.49071965 -48.875 29 C-57.04568465 31.374164 -65.00851958 34.07533336 -73 37 C-75.18346978 37.78217645 -77.37085054 38.55354484 -79.5625 39.3125 C-80.95662109 39.80169922 -80.95662109 39.80169922 -82.37890625 40.30078125 C-85.09682274 41.02582902 -87.20301466 41.27457926 -90 41 C-90.99 40.34 -91.98 39.68 -93 39 C-92.505 36.03 -92.505 36.03 -92 33 C-81.4921875 29.49739583 -70.984375 25.99479167 -60.4765625 22.4921875 C-59.40510986 22.13278076 -59.40510986 22.13278076 -58.31201172 21.76611328 C-56.702606 21.23281707 -55.08929775 20.711215 -53.47314453 20.19873047 C-43.67977376 17.04580109 -34.17387291 13.1901848 -24.625 9.375 C-22.05734299 8.35122101 -19.48930291 7.32843043 -16.92050171 6.30752563 C-15.33484309 5.67714698 -13.74985963 5.04506633 -12.16567993 4.41098022 C-10.11511828 3.59471056 -8.0584951 2.79599338 -6 2 C-4.34556885 1.33991943 -4.34556885 1.33991943 -2.65771484 0.66650391 C-1.342146 0.33658447 -1.342146 0.33658447 0 0 Z " fill="#04203C" transform="translate(819,643)"/>
<path d="M0 0 C2 2 2 2 2.125 5.125 C2.08375 6.07375 2.0425 7.0225 2 8 C-8.74923493 11.03960058 -19.55390943 13.48540414 -30.50732422 15.66479492 C-33.13052108 16.18860246 -35.75075495 16.7257717 -38.37109375 17.26367188 C-63.74810722 22.39886193 -63.74810722 22.39886193 -71 19 C-70.67 17.35 -70.34 15.7 -70 14 C-58.61674516 9.97299916 -46.86086363 7.75861693 -35.04150391 5.42578125 C-31.61020256 4.74707308 -28.18203652 4.05390275 -24.75390625 3.359375 C-22.55746395 2.92101089 -20.36085492 2.48348116 -18.1640625 2.046875 C-17.14728424 1.84068542 -16.13050598 1.63449585 -15.08291626 1.42205811 C-9.98512387 0.42596915 -5.19653916 -0.44900872 0 0 Z " fill="#04203C" transform="translate(798,288)"/>
<path d="M0 0 C8.36102495 1.93233658 16.43282156 2.64320023 25.00708008 2.70849609 C25.85165771 2.72348145 26.69623535 2.7384668 27.56640625 2.75390625 C28.3147876 2.75463135 29.06316895 2.75535645 29.83422852 2.75610352 C30.44580811 2.87783936 31.0573877 2.9995752 31.6875 3.125 C33.8394437 6.35291555 33.88836443 7.40900809 33.6875 11.125 C25.11907125 14.10532304 16.94391951 13.25794766 8.0625 12.3125 C7.00603271 12.20760254 7.00603271 12.20760254 5.92822266 12.10058594 C-0.72015423 11.32170958 -7.16045198 9.63304201 -12.3125 5.125 C-11.71066251 3.10454558 -11.03943904 1.10388961 -10.3125 -0.875 C-6.97748633 -2.54250683 -3.49096008 -0.84459274 0 0 Z " fill="#04203C" transform="translate(951.3125,384.875)"/>
<path d="M0 0 C4.91103653 5.59312493 4.5951018 11.99258153 4.33984375 19.0859375 C3.92337326 23.88252863 2.88918058 27.59191198 1 32 C-3.52975389 29.84572214 -6.88908614 27.52159812 -8.984375 22.765625 C-11.14312391 16.20791605 -12.52533955 9.58454795 -9.75 3.0625 C-6.94515641 -0.24320852 -4.13854744 -2.19860333 0 0 Z " fill="#F6F35B" transform="translate(350,849)"/>
<path d="M0 0 C1.6640625 0.77734375 1.6640625 0.77734375 2.6640625 1.77734375 C2.28743565 6.67349285 1.2620978 9.68044193 -1.3359375 13.77734375 C-1.76440299 15.12782359 -2.18019619 16.48236356 -2.5859375 17.83984375 C-3.99596843 21.71742881 -5.71991006 23.45219856 -9.43359375 25.21875 C-12.72656697 26.18568053 -15.09655613 25.7552702 -18.3359375 24.77734375 C-20.8359375 23.02734375 -20.8359375 23.02734375 -22.3359375 20.77734375 C-22.57282203 16.51342221 -20.02145984 13.16048694 -17.484375 9.91796875 C-13.45822232 5.90645663 -5.91684164 -0.56397989 0 0 Z " fill="#F5F25B" transform="translate(203.3359375,914.22265625)"/>
<path d="M0 0 C9.57491944 1.16162156 14.67697987 6.06461531 21 13 C23.28062828 16.42094242 23.21925007 17.68187222 23.125 21.6875 C23.10695313 22.68136719 23.08890625 23.67523437 23.0703125 24.69921875 C23.04710937 25.45847656 23.02390625 26.21773437 23 27 C18.83664591 27.60715581 15.41238451 27.85907924 11.7265625 25.6171875 C5.48899178 20.2607606 2.73355606 15.30227368 1.3125 7.1875 C1.18294922 6.49462891 1.05339844 5.80175781 0.91992188 5.08789062 C0.60442441 3.39355236 0.30097353 1.69697842 0 0 Z " fill="#F4F25B" transform="translate(591,788)"/>
<path d="M0 0 C1.32 0.66 2.64 1.32 4 2 C4 2.66 4 3.32 4 4 C4.66 4 5.32 4 6 4 C9.52640402 21.12824811 9.52640402 21.12824811 5 30 C4 31 4 31 0.1875 31.375 C-3.03969091 31.3053484 -3.84648042 31.1123314 -6.5625 29.125 C-9.91065512 21.84640192 -6.66527347 12.20782653 -4 5 C-1.8125 1.8125 -1.8125 1.8125 0 0 Z " fill="#F6F35B" transform="translate(345,908)"/>
<path d="M0 0 C2.55539198 2.90785984 2.98304343 4.75412973 3.25 8.625 C2.21252284 14.89756307 -2.83919262 19.4965379 -7 24 C-7.65355469 24.78890625 -8.30710938 25.5778125 -8.98046875 26.390625 C-11 28 -11 28 -13.75 27.75 C-14.4925 27.5025 -15.235 27.255 -16 27 C-16.42862935 17.76065634 -16.40934568 8.31363455 -10 1 C-6.48771545 -0.56931863 -3.57158455 -1.84737132 0 0 Z " fill="#F5F25B" transform="translate(237,864)"/>
<path d="M0 0 C3.85829266 2.78217022 6.05272744 5.29048836 8.25 9.5 C8.75015625 10.4384375 9.2503125 11.376875 9.765625 12.34375 C12.14250502 17.4585551 12.61619587 22.40288752 12 28 C10.5 30.5625 10.5 30.5625 9 32 C1.66761769 31.63338088 1.66761769 31.63338088 -1.4375 28.6875 C-4.94176274 22.66016809 -4.8096905 16.14683208 -3.10546875 9.5234375 C-2.12074582 6.32917724 -1.09352413 3.15852729 0 0 Z " fill="#F6F35B" transform="translate(489,899)"/>
<path d="M0 0 C4.79498299 3.81110676 6.6795927 8.07667752 8 14 C8.1301949 16.64295657 8.17182738 19.29175297 8.125 21.9375 C8.11597656 22.62134766 8.10695313 23.30519531 8.09765625 24.00976562 C8.07438958 25.67333287 8.03853167 27.33671631 8 29 C0.80305204 27.06397891 -3.51267638 22.82051397 -8 17 C-10.05474052 12.25188339 -10.30995228 8.47227332 -9.25 3.4375 C-7.13521876 -0.68632341 -4.36804324 -0.67200665 0 0 Z " fill="#F6F35B" transform="translate(477,843)"/>
<path d="M0 0 C2.5 2 2.5 2 5 5 C5.59167969 5.68835938 6.18335938 6.37671875 6.79296875 7.0859375 C10.53650995 11.60906151 12.89206367 15.21411025 14 21 C10.64102455 22.14266516 8.69549648 21.85911331 5.375 20.6875 C4.59898437 20.42324219 3.82296875 20.15898438 3.0234375 19.88671875 C1 19 1 19 -1 17 C-1.969375 16.896875 -2.93875 16.79375 -3.9375 16.6875 C-7 16 -7 16 -8.6875 13.625 C-9.120625 12.75875 -9.55375 11.8925 -10 11 C-10.5775 10.54625 -11.155 10.0925 -11.75 9.625 C-13 8 -13 8 -12.6875 4.3125 C-12.460625 3.219375 -12.23375 2.12625 -12 1 C-7.66643232 -1.23244396 -4.69671265 -1.25804803 0 0 Z " fill="#EFEF5D" transform="translate(561,746)"/>
<path d="M0 0 C0.99 0 1.98 0 3 0 C1.46971666 4.72430495 -1.16264794 8.02350034 -4.25 11.8125 C-5.25459554 13.06585408 -6.2585081 14.3197559 -7.26171875 15.57421875 C-7.97980713 16.46826416 -7.97980713 16.46826416 -8.71240234 17.38037109 C-10.20875045 19.26258068 -11.64416264 21.18347191 -13.0625 23.125 C-15.69598084 26.66205051 -18.45584885 30.08939702 -21.25 33.5 C-21.68707275 34.04156738 -22.12414551 34.58313477 -22.57446289 35.14111328 C-23.67094667 36.4662892 -24.83092147 37.73840446 -26 39 C-26.66 39 -27.32 39 -28 39 C-27.4511098 34.80200647 -24.93393866 32.01047263 -22.375 28.8125 C-21.92205566 28.23516113 -21.46911133 27.65782227 -21.00244141 27.06298828 C-19.67386917 25.37083654 -18.33763765 23.6849886 -17 22 C-12.43009753 16.18627327 -8.00434953 10.29880652 -3.69921875 4.28515625 C-2 2 -2 2 0 0 Z " fill="#75BFB1" transform="translate(836,448)"/>
<path d="M0 0 C1.53578562 2.5596427 1.71108428 3.9445786 1.125 6.875 C-2.49334056 9.94510715 -6.19462005 10.70784357 -10.875 10.875 C-13.8125 9.4375 -13.8125 9.4375 -15.875 7.875 C-15.8125 5.5625 -15.8125 5.5625 -14.875 2.875 C-10.67726295 0.57036005 -4.51329527 -2.70797716 0 0 Z " fill="#04203C" transform="translate(847.875,636.125)"/>
<path d="M0 0 C0 3.95910169 -1.30536608 4.8471958 -3.875 7.8125 C-9.31844313 14.26847548 -14.16335366 21.08329282 -19 28 C-19.66 27.67 -20.32 27.34 -21 27 C-20.46067232 23.08134065 -19.46213418 20.89996032 -16.9375 17.875 C-13.33565464 13.47274456 -10.0984995 8.88578338 -6.89453125 4.1875 C-4.8634885 1.84237847 -3.99155066 1.40997696 -1 1 C-0.67 0.67 -0.34 0.34 0 0 Z " fill="#79BEA9" transform="translate(769,542)"/>
<path d="M0 0 C2 3 2 3 1.625 5.6875 C1.41875 6.450625 1.2125 7.21375 1 8 C-0.95825873 8.02694851 -2.91662226 8.04637218 -4.875 8.0625 C-5.96554687 8.07410156 -7.05609375 8.08570313 -8.1796875 8.09765625 C-11 8 -11 8 -13 7 C-13 4.6875 -13 4.6875 -12 2 C-8.15081265 -0.3341754 -4.32094693 -1.75736626 0 0 Z " fill="#04203C" transform="translate(826,283)"/>
<path d="M0 0 C0.598125 0.226875 1.19625 0.45375 1.8125 0.6875 C1.3278125 1.22117187 0.843125 1.75484375 0.34375 2.3046875 C-4.16901219 7.32079624 -8.42646998 12.4544388 -12.5234375 17.81640625 C-13.07257812 18.43386719 -13.62171875 19.05132812 -14.1875 19.6875 C-14.8475 19.6875 -15.5075 19.6875 -16.1875 19.6875 C-15.65613344 15.36217622 -12.93037743 12.42144905 -10.3125 9.125 C-9.86519531 8.54814453 -9.41789063 7.97128906 -8.95703125 7.37695312 C-7.72157947 5.7971055 -6.45561835 4.24124884 -5.1875 2.6875 C-4.66929687 2.03910156 -4.15109375 1.39070313 -3.6171875 0.72265625 C-2.1875 -0.3125 -2.1875 -0.3125 0 0 Z " fill="#699F8A" transform="translate(824.1875,467.3125)"/>
<path d="M0 0 C0.99 0.66 1.98 1.32 3 2 C2.60167969 2.50789062 2.20335937 3.01578125 1.79296875 3.5390625 C-1.28566175 7.53903498 -3.91595614 11.36879143 -6 16 C-6.66 16 -7.32 16 -8 16 C-6.80102978 9.28576679 -4.38555881 5.1854406 0 0 Z " fill="#78C1AE" transform="translate(690,644)"/>
<path d="M0 0 C1.32 0.33 2.64 0.66 4 1 C0.7 4.3 -2.6 7.6 -6 11 C-6.66 10.34 -7.32 9.68 -8 9 C-6.6875 7 -6.6875 7 -5 5 C-4.01 5 -3.02 5 -2 5 C-1.855625 4.360625 -1.71125 3.72125 -1.5625 3.0625 C-1 1 -1 1 0 0 Z " fill="#021020" transform="translate(547,803)"/>
<path d="M0 0 C0.8125 1.625 0.8125 1.625 1 4 C-1.3125 7.25 -1.3125 7.25 -4 10 C-4.66 10 -5.32 10 -6 10 C-5.49477778 5.62140745 -2.82172778 3.18348776 0 0 Z " fill="#79A681" transform="translate(814,477)"/>
</svg>
